# xmcd
#
# Track frame offsets:
#	150
#	11097
#	25581
#	38891
#	52446
#	65378
#	88997
#	98450
#	108414
#	122410
#	135512
#
# Disc length: 2016 seconds
# Revision: 0
# Processed by: cddbd v1.5.2PL0 Copyright (c) Steve Scherf et al.
# Submitted via: dBpowerAMP V12.0
#
DISCID=8c07de0b
DTITLE=One Grass Two Grass - One Grass Two Grass
DYEAR=2015
DGENRE=Country
TTITLE0=Green-Eyed Woman
TTITLE1=In a Mood
TTITLE2=Desert Dance
TTITLE3=Love Please Come Home
TTITLE4=Plastic Flowers
TTITLE5=The Raven and the Crow
TTITLE6=Sittin' On Top of the World
TTITLE7=Brain Surgery 
TTITLE8=Train 45
TTITLE9=Roll on Buddy, Roll On
TTITLE10=Stuck in the Middle
EXTD=
EXTT0=
EXTT1=
EXTT2=
EXTT3=
EXTT4=
EXTT5=
EXTT6=
EXTT7=
EXTT8=
EXTT9=
EXTT10=
PLAYORDER=
